<svg id="Layer_1" data-name="Layer 1" xmlns="http://www.w3.org/2000/svg" viewBox="0 0 69.8 16.7"><defs><style>.cls-1{fill:#000000;}</style></defs><title>adobe</title><path class="cls-1" d="M33,10.2l-.9,2.5a.1.1,0,0,1-.1.1H30.6c-.1,0-.1,0-.1-.1.8-2.1,2-5.7,2.9-8.1a3.78,3.78,0,0,0,.1-.8c0-.1,0-.1.1-.1h1.9c.1-.1.1,0,.1,0,1,2.9,2.2,6,3.2,8.9,0,.1,0,.1-.1.1H37.1c-.1,0-.1,0-.1-.1l-.9-2.5H33Zm2.8-1.4c-.3-.9-1-2.8-1.2-3.8h0c-.2.9-.8,2.5-1.2,3.8Zm3.9.6a3.61,3.61,0,0,1,3.9-3.6,2,2,0,0,1,.8.1v-3c0-.1,0-.1.1-.1H46c.1,0,.1,0,.1.1V12c0,.1,0,.1-.1.1a7.22,7.22,0,0,1-2.8.7C41.1,12.9,39.7,11.8,39.7,9.4Zm4.6-2.1a2,2,0,0,0-.8-.1,2,2,0,0,0-2.1,2.2c0,1.6.9,2.2,2,2.2.3,0,.7-.1,1-.1V7.3Zm10.2,2a3.31,3.31,0,0,1-3.4,3.6,3.27,3.27,0,0,1-3.4-3.5,3.31,3.31,0,0,1,3.5-3.5A3.12,3.12,0,0,1,54.5,9.3Zm-5.1,0c0,1.4.6,2.3,1.7,2.3.9,0,1.6-.6,1.6-2.3C52.7,8,52.2,7,51,7,50.1,7.1,49.4,7.9,49.4,9.3Zm8.1-6.4c.1,0,.1,0,.1.1V6.2a4,4,0,0,1,1.5-.3,3,3,0,0,1,3.1,3.2A3.89,3.89,0,0,1,58.1,13a7.61,7.61,0,0,1-2.1-.3.1.1,0,0,1-.1-.1V3c0-.1,0-.1.1-.1Zm1.3,4.3a3.59,3.59,0,0,0-1.1.2v4.1a2,2,0,0,0,.8.1,2.27,2.27,0,0,0,2.2-2.4A1.92,1.92,0,0,0,58.8,7.2Zm6.6,2.5c0,1.1.7,1.8,2.1,1.8a5.55,5.55,0,0,0,1.7-.3.1.1,0,0,1,.1.1v1.1c0,.1,0,.1-.1.2a4.14,4.14,0,0,1-2.1.4,3.25,3.25,0,0,1-3.5-3.5,3.29,3.29,0,0,1,3.3-3.6,2.77,2.77,0,0,1,2.9,2.9,3.14,3.14,0,0,1-.1.9H65.4Zm2.2-1.1c.5,0,.6-.1.6-.1V8.3A1.33,1.33,0,0,0,66.8,7c-.9,0-1.4.7-1.5,1.6Z"/><path class="cls-1" d="M11.9,0l7,16.7V0ZM0,0V16.7L7,0ZM6.4,13.3H9.6L11,16.7h2.9L9.4,6.1Z"/></svg>