<svg id="Layer_1" data-name="Layer 1" xmlns="http://www.w3.org/2000/svg" viewBox="0 0 433.27 83.89"><defs><style>.cls-1{fill:#231f20;}</style></defs><title>fb</title><path class="cls-1" d="M33.9,13.15c-5.1,0-6.58,2.27-6.58,7.25v8.28H40.93L39.57,42.06H27.32V82.65H11V42.06H0V28.68H11v-8C11,7.14,16.44,0,31.63,0a78.86,78.86,0,0,1,9.52.56V13.15"/><path class="cls-1" d="M42.06,54c0-15.08,7.14-26.41,22.11-26.41,8.16,0,13.15,4.19,15.53,9.4V28.68H95.35v54H79.7V74.49c-2.27,5.21-7.37,9.29-15.53,9.29-15,0-22.11-11.34-22.11-26.42m16.33.23c0,8,3,13.37,10.54,13.37C75.62,71,79,66.09,79,58.39V52.94c0-7.71-3.4-12.58-10.09-12.58-7.59,0-10.54,5.33-10.54,13.38Z"/><path class="cls-1" d="M129.35,27.54c6.35,0,12.36,1.36,15.64,3.63l-3.62,11.57a25.69,25.69,0,0,0-10.89-2.5c-8.84,0-12.69,5.1-12.69,13.84v3.16c0,8.74,3.85,13.84,12.69,13.84a25.69,25.69,0,0,0,10.89-2.5L145,80.15c-3.28,2.27-9.29,3.63-15.64,3.63-19.16,0-27.89-10.32-27.89-26.87v-2.5c0-16.55,8.73-26.87,27.89-26.87"/><path class="cls-1" d="M147.15,57.7V52.94c0-15.3,8.72-25.39,26.53-25.39,16.77,0,24.14,10.2,24.14,25.17v8.61H163.47C163.81,68.7,167.1,72,176.17,72a46.39,46.39,0,0,0,17.35-3.29l2.94,11.22c-4.3,2.27-13.15,4-21,4-20.63,0-28.34-10.31-28.34-26.19m16.32-7H183.2V49.31c0-5.89-2.38-10.54-9.52-10.54-7.38,0-10.21,4.65-10.21,11.9"/><path class="cls-1" d="M258.36,57.36c0,15.08-7.25,26.42-22.22,26.42-8.16,0-13.83-4.09-16.1-9.3v8.16H204.63V1.58L221,.11V36.16c2.38-4.76,7.59-8.61,15.19-8.61,15,0,22.22,11.33,22.22,26.41M242,53.62c0-7.6-2.95-13.26-10.77-13.26-6.69,0-10.32,4.76-10.32,12.46v5.67C221,66.2,224.58,71,231.27,71,239.09,71,242,65.3,242,57.7Z"/><path class="cls-1" d="M263.8,57V54.3c0-15.53,8.84-26.75,26.87-26.75s26.87,11.22,26.87,26.75V57c0,15.54-8.85,26.76-26.87,26.76S263.8,72.56,263.8,57m37.41-3.85c0-7.14-2.95-12.81-10.54-12.81S280.13,46,280.13,53.17v5c0,7.15,2.94,12.81,10.54,12.81s10.54-5.66,10.54-12.81Z"/><path class="cls-1" d="M323,57V54.3c0-15.53,8.84-26.75,26.87-26.75s26.87,11.22,26.87,26.75V57c0,15.54-8.84,26.76-26.87,26.76S323,72.56,323,57m37.42-3.85c0-7.14-2.95-12.81-10.55-12.81S339.3,46,339.3,53.17v5c0,7.15,2.94,12.81,10.54,12.81s10.55-5.66,10.55-12.81Z"/><polyline class="cls-1" points="399.15 54.41 415.25 28.68 432.6 28.68 415.7 55.32 433.27 82.64 415.94 82.64 399.15 56.23 399.15 82.64 382.83 82.64 382.83 1.58 399.15 0.11"/></svg>