<?xml version="1.0" encoding="utf-8"?>
<!-- Generator: Adobe Illustrator 23.0.0, SVG Export Plug-In . SVG Version: 6.00 Build 0)  -->
<svg version="1.1" id="LogoWork" xmlns="http://www.w3.org/2000/svg" xmlns:xlink="http://www.w3.org/1999/xlink" x="0px" y="0px"
	 viewBox="0 0 753.7 172.5" style="enable-background:new 0 0 753.7 172.5;" xml:space="preserve">
<title>getaround_logo_white</title>
<path d="M136.7,31.7c-26.6,0-43.5,17.9-43.5,42.8c0,26.2,16.8,43.7,45,43.7c12.5,0,26.6-4.3,35.2-13.3l-13-12.8
	c-4.6,4.8-14.4,7.6-21.9,7.6c-14.3,0-23.1-7.3-24.4-17.4H178C181.2,48.6,164.1,31.7,136.7,31.7z M114.4,65.6
	c3-10.6,12-15.9,22.9-15.9c11.6,0,19.9,5.3,21.3,15.9H114.4z"/>
<path d="M218.6,98.8c-6.3,0-10.6-3.8-10.6-11.6V51.8h22.8V34.4h-22.6V11.1l-20.3,2.2v21.1l0,0v17.4l0,0v35.4
	c0,20.4,11.6,30.6,29.4,29.9c5.8-0.1,11.5-1.3,16.8-3.5l-5.6-17.3C225.3,97.9,222,98.7,218.6,98.8z"/>
<path d="M372.1,32c-8.3,0-16.8,1.5-23.1,11.6l-1.5-9.5h-18.8v81.9H349V72.9c0-15.1,9.8-20.7,20.4-20.7c6.7,0,9.5,0.8,13.6,4.3
	l9.1-17.6C387.7,34.4,380.5,32,372.1,32z"/>
<path d="M431.7,32.5c-26.1,0-42.3,19.3-42.3,42.7c0,23.6,15.9,42.7,42.5,42.7c26.6,0,42.7-19.1,42.7-42.7
	C474.5,51.8,457.8,32.5,431.7,32.5z M431.9,99.3c-14.8,0-22.2-11.6-22.2-24.1c0-12.3,7.6-24.2,22.2-24.2c13.6,0,22.2,12,22.2,24.2
	C454.1,87.7,446.6,99.3,431.9,99.3L431.9,99.3z"/>
<path d="M544.1,76.1c0,12.4-8.5,22.9-20.9,22.9c-13,0-19.8-9.5-19.8-21.9V34.2h-20.3v43c0,25.4,14.3,40.2,33.9,40.2
	c11.5,0,19.3-4,27.7-12.3l1.3,11.1h18.1v-82h-20.1V76.1z"/>
<path d="M622.1,32.9c-10.3,0-18.6,4.2-26.9,12.3L593.9,34h-18.1v82h20.1V74.2c0-12.5,8.5-22.9,20.9-22.9c13,0,19.8,9.5,19.8,21.9
	V116h20.3V73C656.8,47.3,641.4,32.9,622.1,32.9z"/>
<path d="M733.4,0v45.3c-4.8-8.5-18.3-13.1-26.9-13.1c-23.9,0-41.7,14.6-41.7,42.8c0,26.9,18.1,42.8,42.2,42.8
	c10,0,20.1-3.3,26.4-13.1l1.3,11.3h18.9V0H733.4z M708.3,99.2c-13,0-23.2-9.8-23.2-24.1c0-14.8,10.3-23.9,23.2-23.9
	c12.9-0.2,23.5,10.1,23.7,23c0,0.3,0,0.6,0,0.9C732.1,89.8,721.1,99.2,708.3,99.2z"/>
<path d="M303.4,35.5c-9.7-5.4-29-5.8-39.5-3c-13.3,3.6-21.4,13.8-22,26.4l19.2,4.4c1.5-9.6,4.4-12.9,12.6-14.2c6-1,14.5-0.8,19.2,4
	c2.6,2.7,2.9,3.9,2.5,8.3c-0.2,2.1-4.4,2.8-6.9,3.3c-9,2-23.1,3-31.9,5.4c-17.4,4.8-19.9,25.9-11.1,36.8c9,11.2,31.6,13.8,44.3,5.4
	c1.9-1.3,3.8-2.6,6.2-4.3v7.8h20.9c0-7,0-14.2,0-21c0.1-12.4,0.5-24.9,0.1-37.3C316.7,48.3,311.5,39.9,303.4,35.5z M287.5,97.2
	c-2.7,1.5-5.6,2.4-8.6,2.9c-3.8,0.7-7.7,1.4-11.5,0.6c-2.6-0.6-5.3-1.9-6.7-4.2c-0.8-1.4-1.2-3-1.1-4.6c0.1-1.5,0.7-3,1.7-4.2
	c1.2-1.4,2.7-2.5,4.4-3.1c5.3-2.3,11.2-3,16.9-3.6l9.5-1l2.4-0.3l1.1-0.1c0.4,0,0.5-0.1,0.6,0.3c0,1.4-0.1,2.8-0.3,4.2
	c-0.2,1.4-0.5,2.7-1,4c-1.1,3.1-3.1,5.9-5.7,7.9C288.5,96.5,288,96.9,287.5,97.2z"/>
<path d="M42.5,117.9C15.9,117.9,0,98.8,0,75.2c0-23.4,16.3-42.7,42.3-42.7H93c0,0-2.2,13.3-14.8,18.4H42.6
	C28,51,20.3,62.9,20.3,75.2c0,12.4,7.5,24.1,22.2,24.1s22.2-11.6,22.2-24.1c0-6.7-2.6-13.2-7.2-18h24c2.4,5.7,3.7,11.8,3.7,18
	c0,13.4-5.2,25.4-14.7,33.2c11.7,6.9,14.7,16.4,14.7,26.4c0,23.3-17.8,37.7-42.3,37.7c-22.9,0-40.4-13.1-42.6-33.4l20.6-2.2
	c1.2,9.8,10.8,16.1,22,16.1c12,0,21.4-6.5,21.4-18.2s-10.9-16.9-21.4-17L42.5,117.9z"/>
</svg>
