<svg width="448" height="80" viewBox="0 0 448 80" fill="none" xmlns="http://www.w3.org/2000/svg">
<path fill-rule="evenodd" clip-rule="evenodd" d="M38.6471 55.0743L51.1195 67.0517L40.7149 77.4671C37.341 80.8444 31.8697 80.8444 28.4958 77.4671L2.53044 51.4757C-0.84348 48.0974 -0.84348 42.6217 2.53044 39.2444C5.90544 35.8671 11.3756 35.8671 14.7496 39.2444L34.6054 59.1201L38.6471 55.0743ZM41.8892 51.8289L52.9362 40.7709L65.1542 53.0022L54.9821 63.185L41.8892 51.8289Z" fill="black"/>
<path fill-rule="evenodd" clip-rule="evenodd" d="M91.8724 62.9553L78.8536 51.5244L109.447 20.9002C112.821 17.5229 118.291 17.5229 121.666 20.9002C125.04 24.2775 125.04 29.7531 121.666 33.1315L91.8724 62.9553ZM87.8236 67.0081L77.3755 77.4667C74.0005 80.844 68.5303 80.844 65.1564 77.4667L20.8613 33.1272C17.4873 29.7488 17.4873 24.2731 20.8613 20.8958C24.2352 17.5175 29.7054 17.5175 33.0804 20.8958L71.2659 59.1196L75.5608 54.8205L87.8236 67.0081Z" fill="black"/>
<path fill-rule="evenodd" clip-rule="evenodd" d="M73.0988 48.7198L85.26 36.4316L107.925 59.1196L127.777 39.2482C131.152 35.8709 136.622 35.8709 139.996 39.2482C143.37 42.6266 143.37 48.1023 139.996 51.4796L114.035 77.4666C110.661 80.8439 105.191 80.8439 101.817 77.4666L73.0988 48.7198ZM68.0607 43.6767L39.1908 14.778C35.8169 11.4007 35.8169 5.925 39.1908 2.5477C42.5658 -0.830678 48.036 -0.830678 51.41 2.5477L80.3098 31.4764L68.0607 43.6767Z" fill="black"/>
<path fill-rule="evenodd" clip-rule="evenodd" d="M103.336 2.55177C99.962 -0.825526 94.4918 -0.825526 91.1168 2.55177L52.9355 40.7712L65.1547 53.0026L103.336 14.7831C106.71 11.4047 106.71 5.92907 103.336 2.55177Z" fill="black"/>
<path fill-rule="evenodd" clip-rule="evenodd" d="M187.255 8.52481H176.63V70.9998H215.56V61.5648H187.255V8.52481ZM238.555 27.3098C245.015 27.3098 249.35 29.9448 251.73 33.1748L252.24 28.1598H261.42V70.9998H252.24L251.73 65.9848C249.35 69.2148 245.015 71.8498 238.555 71.8498C226.91 71.8498 219.005 62.4148 219.005 49.5798C219.005 36.6598 226.91 27.3098 238.555 27.3098ZM240.765 36.3198C234.135 36.3198 229.375 41.5048 229.375 49.5798C229.375 57.6548 234.135 62.8398 240.765 62.8398C245.865 62.8398 248.925 60.1198 251.22 56.4648V42.6948C248.925 39.0398 245.865 36.3198 240.765 36.3198ZM287.135 13.7948H276.935V28.1598H268.86V36.8298H276.935V55.8698C276.935 66.2398 283.14 71.8498 292.915 71.8498C297.165 71.8498 300.31 70.6598 302.435 69.2998L299.715 61.3098C298.44 62.0748 296.57 62.6698 293.85 62.6698C289.855 62.6698 287.135 60.1198 287.135 55.7848V36.8298H300.055V28.1598H287.135V13.7948ZM322.285 13.7948H312.085V28.1598H304.01V36.8298H312.085V55.8698C312.085 66.2398 318.29 71.8498 328.065 71.8498C332.315 71.8498 335.46 70.6598 337.585 69.2998L334.865 61.3098C333.59 62.0748 331.72 62.6698 329 62.6698C325.005 62.6698 322.285 60.1198 322.285 55.7848V36.8298H335.205V28.1598H322.285V13.7948ZM354.63 28.1598H344.43V70.9998H354.63V28.1598ZM349.53 8.18481C345.96 8.18481 343.24 10.8198 343.24 14.4748C343.24 18.1298 345.96 20.7648 349.53 20.7648C353.185 20.7648 355.905 18.1298 355.905 14.4748C355.905 10.8198 353.185 8.18481 349.53 8.18481ZM385.445 27.3098C372.27 27.3098 363.515 36.6598 363.515 49.5798C363.515 62.4148 372.355 71.8498 385.53 71.8498C393.265 71.8498 399.13 68.3648 402.955 62.4148L395.645 56.7198C393.605 60.1198 390.29 62.9248 385.615 62.9248C378.05 62.9248 373.885 57.0598 373.885 49.5798C373.885 42.0148 377.88 36.2348 385.53 36.2348C390.29 36.2348 393.435 38.9548 395.39 42.3548L402.785 36.7448C398.96 30.7948 393.265 27.3098 385.445 27.3098ZM427.905 27.3098C441.08 27.3098 447.54 37.1698 447.54 49.1548V52.7248H417.28C417.535 59.5248 421.615 63.2648 428.755 63.2648C433.77 63.2648 437.425 61.0548 439.38 58.3348L446.435 64.1148C442.185 69.2148 436.575 71.8498 428.67 71.8498C415.41 71.8498 406.91 62.4998 406.91 49.6648C406.91 36.7448 415.58 27.3098 427.905 27.3098ZM427.735 35.4698C421.7 35.4698 417.62 39.4648 417.28 45.4148H437.51C437.255 39.5498 433.855 35.4698 427.735 35.4698Z" fill="black"/>
</svg>
