<?xml version="1.0" encoding="utf-8"?>
<!-- Generator: Adobe Illustrator 21.0.0, SVG Export Plug-In . SVG Version: 6.00 Build 0)  -->
<svg version="1.1" id="Layer_1" xmlns="http://www.w3.org/2000/svg" xmlns:xlink="http://www.w3.org/1999/xlink" x="0px" y="0px"
	 viewBox="0 0 144 72" style="enable-background:new 0 0 144 72;" xml:space="preserve">
<style type="text/css">
	.st0{fill:#FFFFFF;}
</style>
<title>Artboard 1</title>
<g>
	<path class="st0" d="M97.8,47.6c0-0.2-0.2-0.3-0.4-0.3H97v0.5h0.3C97.5,47.8,97.8,47.8,97.8,47.6z"/>
	<path class="st0" d="M97.3,46.7c-0.7,0-1.3,0.5-1.3,1.3c0,0.7,0.6,1.3,1.3,1.3c0.7,0,1.3-0.5,1.3-1.3C98.6,47.2,98,46.7,97.3,46.7z
		 M97.8,48.8L97.3,48H97v0.7h-0.2v-1.7h0.6c0.4,0,0.6,0.2,0.6,0.5c0,0.3-0.2,0.4-0.5,0.5l0.5,0.8H97.8z"/>
	<path class="st0" d="M82.6,35.7c-3.8,0-3.8,3.8-3.8,5.9v1.9c0,2.1,0,5.9,3.8,5.9c3.8,0,3.8-3.8,3.8-5.9v-1.9
		C86.5,39.5,86.5,35.7,82.6,35.7z"/>
	<path class="st0" d="M45.5,35.6c-1.3,0-4,0.6-4.2,4.3c0,0.2,0.1,0.4,0.2,0.4h8c0.1,0,0.2-0.1,0.2-0.3
		C49.5,36.3,46.8,35.6,45.5,35.6z"/>
	<path class="st0" d="M131.5,36.2l-0.2-0.1c0,0,3.2-0.7,4.6-3.8c0.8-1.8,0.9-3.9,0.1-5.8c-1.4-3.2-3.4-5.9-5.9-8.2
		c-1.3-1.1-2.9-1.7-4.6-1.7c-4.1,0-5.9,3.3-5.9,3.3l0-11.4c0-3.9-3.1-7-7-7c-1.7,0-4.7,0.5-6.8,1.1c-2,0.5-4,1.3-5.9,2.2
		C98,5.6,96.7,7.1,96.1,9c-0.6,1.9-0.4,3.9,0.6,5.6l5.7,9.9c0,0-1.4-0.8-3.3-0.8c-3,0-5.7,1.9-6.6,4.8c-0.1,0.2-0.1,0.4-0.2,0.6
		c-0.9-0.9-2-1.7-3.4-2.3c-1.8-0.9-3.9-1.3-5.9-1.3c-1.6,0-3.1,0.3-4.5,0.8c-1.1-0.6-2.3-0.9-3.5-0.9c-1.8,0-3.4,0.6-4.7,1.7v-1.4
		c0-4.2-3.4-7.5-7.5-7.5c-4.2,0-7.5,3.4-7.5,7.5v4.2c-2.8-3-6.6-4.2-10-4.2c-2.6,0-6,0.8-8.8,3.2c-1-1.3-2.3-2.3-3.9-2.8
		c-0.7-0.2-1.5-0.3-2.2-0.3c-3.4,0-6.3,2.2-7.3,5.4l-0.3,1l-1-2.1c-1.4-3-5.7-5.7-10.2-3.5c-1.8,0.9-3.2,2.4-3.9,4.4s-0.5,4,0.4,5.8
		l7.2,14.8c-2.1,0.8-3.7,2.6-4.4,4.9c-0.6,2.2-0.2,4.6,1.1,6.4c1.1,1.4,3.1,3.2,7,3.3c0.1,0,0.3,0,0.4,0c5.5,0,9.5-2.7,11-7.4
		c0.6-1.9,1.3-4.2,2.1-6.6c0.1,0.3,0.3,0.6,0.4,0.9c2.4,4.5,6.7,7,12.2,7c5.2,0,8.8-1.8,11.1-4c1.3,2.4,3.8,4,6.6,4
		c1.8,0,3.4-0.6,4.7-1.7v1.4c0,4.2,3.4,7.5,7.5,7.5c4.1,0,7.4-3.3,7.5-7.3c0,0,5.9,0.3,9.8-3.8c0.4-0.4,1.1-1.2,1.8-2.4
		c0.9,0.5,2,0.8,3.1,0.8c0.9,0,1.8-0.2,2.6-0.5c0.4,0.6,1,1,1.5,1.5c2.8,1.9,6,3.2,9.4,3.8c0.4,0.1,0.8,0.1,1.2,0.1
		c3.8,0,6.9-3,7-6.8l0-0.2l0.1,0.2c1.3,2.1,3.5,3.3,5.9,3.3c1.6,0,3.2-0.6,4.5-1.6c2.6-2.1,4.7-4.9,6.2-8c0.9-1.8,0.9-3.9,0.1-5.8
		C135,38.2,133.5,36.8,131.5,36.2z M32.8,34c0,0-4.4,14.5-7.1,22.9c-0.9,2.8-3.2,4.1-6.7,4.1c-3.4-0.1-4-2.1-3.6-3.4
		c0.4-1.5,1.6-1.9,2.8-1.9c3.1,0,3.5-1.9,2.3-4.2l-8.3-17c-0.7-1.4-0.1-3,1.3-3.7c1.4-0.7,3-0.1,3.7,1.3l6.4,13.2l4-12.8
		c0.4-1.4,2-2.2,3.4-1.8C32.5,31,33.3,32.6,32.8,34z M54.8,41.7c0,1.8-1.3,2.9-2.6,3c-0.1,0-0.1,0-0.2,0l-9.6,0
		c-0.8,0-1.1,0.3-1.1,0.9c0,0.8,0.5,4.3,4.4,4.3c2.7,0,4.4-2.4,5.6-2.9c1.5-0.5,2.8,0.8,2.8,2.5c0,1.1-1.7,5.3-9,5.3
		c-8.5,0-9.4-7.8-9.5-11.8c0-10.8,6.7-12.5,9.6-12.5c2.8,0,9.1,1.4,9.5,11.1C54.8,41.6,54.8,41.7,54.8,41.7
		C54.8,41.7,54.8,41.7,54.8,41.7z M65.5,52.1c0,1.5-1.2,2.7-2.7,2.7s-2.7-1.2-2.7-2.7V25.6c0-1.5,1.2-2.7,2.7-2.7s2.7,1.2,2.7,2.7
		V52.1z M82.3,54.6c-2.8-0.1-4.6-2.3-4.6-2.3v6.9c0,1.5-1.2,2.7-2.7,2.7s-2.7-1.2-2.7-2.7V32.9c0-1.5,1.2-2.7,2.7-2.7
		c1.3,0,2.3,0.9,2.6,2c0.4-0.3,0.9-0.6,1.4-0.9c2.4-1.4,5.4-1.4,7.9-0.2c4.4,2.1,4.8,6.9,4.8,10.4C91.8,43.9,92.4,54.9,82.3,54.6z
		 M97.3,49.4c-0.8,0-1.5-0.6-1.5-1.5c0-0.9,0.7-1.5,1.5-1.5c0.8,0,1.5,0.6,1.5,1.5C98.8,48.8,98.1,49.4,97.3,49.4z M99,39.7
		c-1.3,0.3-2.5-0.6-2.6-1.8c-0.3-2.7,0-5.4,0.8-7.9c0.4-1.2,1.8-1.8,3-1.2l9.3,4.5c1.8,0.9,1.5,3.5-0.4,4L99,39.7z M114.1,52
		c0,1.3-1.2,2.2-2.5,2c-2.7-0.4-5.2-1.5-7.4-3c-1.1-0.7-1.2-2.2-0.4-3.2l6.9-7.7c1.3-1.5,3.8-0.5,3.7,1.5L114.1,52z M110.7,28.9
		L101,12.1c-0.6-1.1-0.2-2.5,0.9-3c1.6-0.8,3.3-1.4,5.1-1.9c1.8-0.5,3.6-0.8,5.4-0.9c1.2-0.1,2.3,0.9,2.3,2.1l0,19.4
		C114.6,30.1,111.8,30.8,110.7,28.9z M117.9,31l5.8-8.6c0.7-1.1,2.2-1.3,3.2-0.4c2,1.7,3.6,3.9,4.7,6.5c0.5,1.2-0.1,2.5-1.4,2.9
		l-9.9,2.8C118.4,34.8,116.8,32.6,117.9,31z M131.3,43.8c-1.2,2.4-2.8,4.6-4.9,6.3c-1,0.8-2.5,0.6-3.2-0.5l-5.5-8.8
		c-1.1-1.7,0.6-3.8,2.5-3.2l9.8,3.2C131.3,41.2,131.8,42.6,131.3,43.8z"/>
</g>
</svg>
